<svg height="512pt" viewBox="0 -49 512.00074 512" width="512pt" xmlns="http://www.w3.org/2000/svg"><path d="m338.21875 311.332031c4.144531 0 7.503906-3.355469 7.503906-7.5v-12.449219c0-4.144531-3.359375-7.5-7.503906-7.5-4.140625 0-7.5 3.355469-7.5 7.5v12.449219c0 4.144531 3.359375 7.5 7.5 7.5zm0 0"/><path d="m176.898438 311.332031c4.140624 0 7.5-3.355469 7.5-7.5v-12.449219c0-4.144531-3.359376-7.5-7.5-7.5-4.144532 0-7.5 3.355469-7.5 7.5v12.449219c0 4.144531 3.355468 7.5 7.5 7.5zm0 0"/><path d="m257.558594 360.039062c19.628906 0 35.601562-15.96875 35.601562-35.601562v-20.429688c0-8.367187-6.804687-15.171874-15.171875-15.171874h-40.859375c-8.367187 0-15.171875 6.804687-15.171875 15.171874v20.429688c0 19.632812 15.96875 35.601562 35.601563 35.601562zm-20.429688-56.203124s41.03125.078124 41.03125.171874v20.429688c0 11.359375-9.242187 20.601562-20.601562 20.601562s-20.601563-9.242187-20.601563-20.601562c0 0 .078125-20.601562.171875-20.601562zm0 0"/><path d="m494.621094 172.339844c-23.503906-23.5-64.605469-23.125-101.148438.488281-4.660156-3.832031-9.554687-7.480469-14.671875-10.929687 3.328125-5.792969 5.242188-12.496094 5.242188-19.644532 0-20.070312-15.023438-36.683594-34.417969-39.214844-7.234375-26.792968-27.71875-48.316406-54.070312-59.035156 2.828124-15.277344-8.570313-44.003906-37.996094-44.003906-29.429688 0-40.109375 28.933594-38.011719 43.910156-26.449219 10.667969-46.800781 32.1875-54.042969 59.128906-19.398437 2.523438-34.433594 19.140626-34.433594 39.214844 0 7.148438 1.914063 13.851563 5.242188 19.644532-29.28125 19.742187-51.257812 46.0625-63.898438 75.605468-4.796874-9.707031-8.089843-20.800781-11.382812-32.582031-7.246094-25.949219-33.464844-25.175781-41.839844-21.746094-7.175781 2.902344-20.398437 13.207031-19.1015622 31.4375 1.4609372 20.550781 10.4492182 89.25 64.8085942 119.34375 3.765624 14.621094 9.714843 28.792969 17.742187 42.027344 14.042969 23.140625 39.707031 37.515625 66.976563 37.515625h215.882812c27.269531 0 52.933594-14.375 66.972656-37.515625 11.734375-19.335937 19.046875-40.675781 21.539063-62.511719 7.945312-5.089844 15.445312-11.132812 22.320312-18.007812 2.929688-2.929688 2.929688-7.679688 0-10.605469-2.925781-2.929687-7.675781-2.929687-10.605469 0-3.429687 3.429687-7.035156 6.625-10.777343 9.570313-.132813-8.558594-1.007813-17.035157-2.59375-25.367188 23.332031-24.164062 31.367187-57.277344 17.09375-71.550781-10.003907-10.003907-30.074219-9.277344-50.097657 1.386719-4.382812-5.433594-9.132812-10.65625-14.238281-15.636719 29.546875-17.621094 61.1875-18.027344 78.898438-.3125 17.570312 17.570312 17.359375 49.429687-.535157 79.273437-2.128906 3.554688-.960937 8.132813 2.578126 10.289063 4.789062 2.921875 8.882812-.230469 10.289062-2.578125 21.492188-35.847656 20.800781-75.070313-1.722656-97.59375zm-237.0625-157.335938c24.328125 0 23.382812 24.019532 23.371094 24.324219-7.515626-1.78125-15.347657-2.738281-23.371094-2.738281-8.042969 0-15.875.945312-23.375 2.699218-.011719-.292968-.953125-24.285156 23.375-24.285156zm-86.925782 102.695313h110.488282c4.144531 0 7.5-3.359375 7.5-7.5 0-4.144531-3.355469-7.503907-7.5-7.503907h-99.855469c10.226563-30.101562 40.839844-51.105468 76.292969-51.105468 35.128906 0 66 21.097656 76.273437 51.105468h-19.90625c-4.144531 0-7.5 3.359376-7.5 7.503907 0 4.140625 3.355469 7.5 7.5 7.5h30.558594c13.542969 0 24.558594 11.015625 24.558594 24.558593 0 13.539063-11.015625 24.558594-24.558594 24.558594h-173.851563c-13.542968 0-24.558593-11.019531-24.558593-24.558594 0-13.542968 11.015625-24.558593 24.558593-24.558593zm-155.582031 95.851562c-.820312-11.582031 8.742188-16.027343 9.796875-16.480469 4.324219-1.773437 17.773438-3.089843 21.570313 11.222657 3.492187 13.160156 7.371093 25.511719 12.808593 36.394531 1.894532 3.792969 4.21875 7.238281 6.921876 10.296875-3.945313 13.503906-6.019532 27.5-6.019532 41.703125 0 5.652344.34375 11.296875.992188 16.90625-38-29.1875-44.855469-82.957031-46.070313-100.042969zm443.792969-5.429687c4.976562 4.976562 3.582031 24.246094-10.96875 43.230468-5.035156-17.660156-16.296875-35.402343-19.519531-40.222656 14-6.921875 26.273437-7.222656 30.488281-3.007812zm-40.609375 14.800781h-300.574219c-4.140625 0-7.5 3.355469-7.5 7.5 0 4.140625 3.359375 7.5 7.5 7.5h308.898438c8.917968 18.585937 13.429687 38.292969 13.429687 58.765625 0 25.214844-6.839843 49.277344-20.335937 71.515625-11.339844 18.6875-32.089844 30.296875-54.152344 30.296875h-215.882812c-22.0625 0-42.808594-11.609375-54.148438-30.296875-13.496094-22.238281-20.339844-46.300781-20.339844-71.515625 0-25.371094 6.921875-49.5625 20.578125-71.910156 12.191407-19.953125 29.578125-37.648438 50.484375-51.449219 6.734375 5.308594 15.222656 8.488281 24.441406 8.488281h173.855469c9.21875 0 17.707031-3.179687 24.4375-8.488281 20.253907 13.371094 37.183594 30.398437 49.308594 49.59375zm0 0"/></svg>